<svg xmlns="http://www.w3.org/2000/svg" xmlns:xlink="http://www.w3.org/1999/xlink" width="153.057" height="204.076" viewBox="0 0 153.057 204.076">
  <defs>
    <linearGradient id="linear-gradient" x1="-0.111" y1="0.285" x2="1.134" y2="0.72" gradientUnits="objectBoundingBox">
      <stop offset="0" stop-color="#fff" stop-opacity="0.2"/>
      <stop offset="1" stop-color="#fff" stop-opacity="0"/>
    </linearGradient>
  </defs>
  <g id="iconfinder_addiction_Coffee_3122432" transform="translate(-3)">
    <path id="Path_9" data-name="Path 9" d="M147.553,28.906V4.252A4.249,4.249,0,0,0,143.3,0H15.755A4.249,4.249,0,0,0,11.5,4.252V28.906A85.214,85.214,0,0,0,3,65.779v121.29a17.023,17.023,0,0,0,17.006,17.006H139.05a17.023,17.023,0,0,0,17.006-17.006V65.779A85.214,85.214,0,0,0,147.553,28.906Z" transform="translate(0)" fill="#303c42"/>
    <rect id="Rectangle_6" data-name="Rectangle 6" width="120" height="16" transform="translate(19.984 8.763)" fill="#938884"/>
    <path id="Path_10" data-name="Path 10" d="M131.547,165.56H12.5a8.514,8.514,0,0,1-8.5-8.5v-8.5H8.252a4.252,4.252,0,0,0,0-8.5H4V35.766A76.756,76.756,0,0,1,10.93,4H133.121a76.756,76.756,0,0,1,6.93,31.766V140.05H135.8a4.252,4.252,0,1,0,0,8.5h4.252v8.5A8.514,8.514,0,0,1,131.547,165.56Z" transform="translate(7.503 30.013)" fill="#beb7b3"/>
    <rect id="Rectangle_7" data-name="Rectangle 7" width="11.16" height="17.006" transform="translate(20.006 8.503)" fill="#fff" opacity="0.2"/>
    <rect id="Rectangle_8" data-name="Rectangle 8" width="11.16" height="17.006" transform="translate(127.89 8.503)" opacity="0.1"/>
    <path id="Path_11" data-name="Path 11" d="M16.755,157.057V35.766A91.945,91.945,0,0,1,22.385,4H10.93A76.756,76.756,0,0,0,4,35.766V140.05H8.252a4.252,4.252,0,0,1,0,8.5H4v8.5a8.514,8.514,0,0,0,8.5,8.5h11.16C19.855,165.56,16.755,161.744,16.755,157.057Z" transform="translate(7.503 30.013)" fill="#fff" opacity="0.2"/>
    <path id="Path_12" data-name="Path 12" d="M33.1,140.05h4.252V35.766A76.756,76.756,0,0,0,30.422,4H18.966A91.957,91.957,0,0,1,24.6,35.766v121.29c0,4.688-3.1,8.5-6.909,8.5h11.16a8.514,8.514,0,0,0,8.5-8.5v-8.5H33.1a4.252,4.252,0,0,1,0-8.5Z" transform="translate(110.202 30.013)" opacity="0.1"/>
    <path id="Path_13" data-name="Path 13" d="M28.617,20H10.395a4.252,4.252,0,1,0,0,8.5H28.617a4.252,4.252,0,1,0,0-8.5Z" transform="translate(23.583 150.063)" fill="#303c42"/>
    <path id="Path_14" data-name="Path 14" d="M37.189,20H18.966a4.252,4.252,0,0,0,0,8.5H37.189a4.252,4.252,0,0,0,0-8.5Z" transform="translate(87.895 150.063)" fill="#303c42"/>
    <path id="Path_15" data-name="Path 15" d="M32.9,20H14.68a4.252,4.252,0,0,0,0,8.5H32.9a4.252,4.252,0,1,0,0-8.5Z" transform="translate(55.739 150.063)" fill="#303c42"/>
    <path id="Path_16" data-name="Path 16" d="M72.227,76.609a21.289,21.289,0,0,0,1.333-3.09C84.37,69.4,92.031,56.279,92.031,41.013c0-13.13-5.668-24.416-13.86-30.083A4.193,4.193,0,0,0,76.61,9.8,20.072,20.072,0,0,0,66.522,7C52.455,7,41.013,22.258,41.013,41.013c-13.13,0-24.416,5.668-30.083,13.86A4.193,4.193,0,0,0,9.8,56.434,20.072,20.072,0,0,0,7,66.522C7,80.589,22.258,92.031,41.013,92.031c13.13,0,24.415-5.669,30.082-13.86A4.189,4.189,0,0,0,72.227,76.609Z" transform="translate(30.013 52.522)" fill="#303c42"/>
    <path id="Path_17" data-name="Path 17" d="M31.2,26.812c0,9.389-3.6,17.872-8.94,22.272a23.063,23.063,0,0,0-8.286-13.655c1.206-2.261,2.509-4.388,3.756-6.259A50.856,50.856,0,0,0,26.164,8.893,32.777,32.777,0,0,1,31.2,26.812Z" transform="translate(82.341 66.723)" fill="#8e532a"/>
    <path id="Path_18" data-name="Path 18" d="M12,33.509C12,19.684,19.789,8,29.006,8a11.273,11.273,0,0,1,4.038.844,42.142,42.142,0,0,1-7.576,22.307c-1.258,1.886-2.581,4.037-3.861,6.357a40.412,40.412,0,0,0-9.539-3.077C12.056,34.12,12,33.826,12,33.509Z" transform="translate(67.528 60.025)" fill="#8e532a"/>
    <path id="Path_19" data-name="Path 19" d="M52.325,29.006a11.269,11.269,0,0,1-.841,4.03c-9.9-.565-16.143-3.967-22.522-7.7-5.731-3.355-11.608-6.793-20.07-8.3A32.777,32.777,0,0,1,26.816,12C40.642,12,52.325,19.789,52.325,29.006Z" transform="translate(44.209 90.038)" fill="#8e532a"/>
    <path id="Path_20" data-name="Path 20" d="M8,17.556a11.272,11.272,0,0,1,.841-4.03c9.9.565,16.143,3.967,22.522,7.7,5.731,3.355,11.609,6.793,20.071,8.3a32.773,32.773,0,0,1-17.924,5.038C19.684,34.562,8,26.773,8,17.556Z" transform="translate(37.516 101.488)" fill="#8e532a"/>
    <path id="Path_21" data-name="Path 21" d="M147.553,28.906V4.252A4.249,4.249,0,0,0,143.3,0H15.755A4.249,4.249,0,0,0,11.5,4.252V28.906A85.214,85.214,0,0,0,3,65.779v121.29a17.023,17.023,0,0,0,17.006,17.006H139.05a17.023,17.023,0,0,0,17.006-17.006V65.779A85.214,85.214,0,0,0,147.553,28.906Z" transform="translate(0)" fill="url(#linear-gradient)"/>
  </g>
</svg>
