<svg id="iconfinder_addiction_Coffee_3122432" xmlns="http://www.w3.org/2000/svg" xmlns:xlink="http://www.w3.org/1999/xlink" width="128.85" height="171.801" viewBox="0 0 128.85 171.801">
  <defs>
    <linearGradient id="linear-gradient" x1="-0.111" y1="0.285" x2="1.134" y2="0.72" gradientUnits="objectBoundingBox">
      <stop offset="0" stop-color="#fff" stop-opacity="0.2"/>
      <stop offset="1" stop-color="#fff" stop-opacity="0"/>
    </linearGradient>
  </defs>
  <path id="Path_9" data-name="Path 9" d="M124.692,24.334V3.579A3.577,3.577,0,0,0,121.113,0H13.738a3.577,3.577,0,0,0-3.579,3.579V24.334A71.737,71.737,0,0,0,3,55.376V157.484A14.331,14.331,0,0,0,17.317,171.8H117.534a14.331,14.331,0,0,0,14.317-14.317V55.376A71.737,71.737,0,0,0,124.692,24.334Z" transform="translate(-3 0)" fill="#303c42"/>
  <rect id="Rectangle_6" data-name="Rectangle 6" width="101" height="14" transform="translate(13.5 7.102)" fill="#938884"/>
  <path id="Path_10" data-name="Path 10" d="M111.375,140.009H11.158A7.168,7.168,0,0,1,4,132.85v-7.158H7.579a3.579,3.579,0,0,0,0-7.158H4V30.742A64.617,64.617,0,0,1,9.834,4H112.7a64.617,64.617,0,0,1,5.834,26.742v87.791h-3.579a3.579,3.579,0,1,0,0,7.158h3.579v7.158A7.168,7.168,0,0,1,111.375,140.009Z" transform="translate(3.158 24.633)" fill="#beb7b3"/>
  <rect id="Rectangle_7" data-name="Rectangle 7" width="9.395" height="14.317" transform="translate(14.317 7.158)" fill="#fff" opacity="0.2"/>
  <rect id="Rectangle_8" data-name="Rectangle 8" width="9.395" height="14.317" transform="translate(105.138 7.158)" opacity="0.1"/>
  <path id="Path_11" data-name="Path 11" d="M14.738,132.85V30.742A77.4,77.4,0,0,1,19.478,4H9.834A64.617,64.617,0,0,0,4,30.742v87.791H7.579a3.579,3.579,0,0,1,0,7.158H4v7.158a7.168,7.168,0,0,0,7.158,7.158h9.4C17.348,140.009,14.738,136.8,14.738,132.85Z" transform="translate(3.158 24.633)" fill="#fff" opacity="0.2"/>
  <path id="Path_12" data-name="Path 12" d="M30.662,118.534h3.579V30.742A64.617,64.617,0,0,0,28.408,4H18.764A77.413,77.413,0,0,1,23.5,30.742V132.85c0,3.946-2.61,7.158-5.816,7.158h9.4a7.168,7.168,0,0,0,7.158-7.158v-7.158H30.662a3.579,3.579,0,0,1,0-7.158Z" transform="translate(87.451 24.633)" opacity="0.1"/>
  <path id="Path_13" data-name="Path 13" d="M25.063,20H9.722a3.579,3.579,0,1,0,0,7.158H25.063a3.579,3.579,0,1,0,0-7.158Z" transform="translate(16.356 123.167)" fill="#303c42"/>
  <path id="Path_14" data-name="Path 14" d="M33.634,20H18.294a3.579,3.579,0,1,0,0,7.158H33.634a3.579,3.579,0,1,0,0-7.158Z" transform="translate(69.141 123.167)" fill="#303c42"/>
  <path id="Path_15" data-name="Path 15" d="M29.349,20H14.008a3.579,3.579,0,0,0,0,7.158H29.349a3.579,3.579,0,1,0,0-7.158Z" transform="translate(42.749 123.167)" fill="#303c42"/>
  <path id="Path_16" data-name="Path 16" d="M61.911,65.6A17.923,17.923,0,0,0,63.034,63c9.1-3.465,15.55-14.514,15.55-27.366,0-11.053-4.772-20.555-11.668-25.325A3.53,3.53,0,0,0,65.6,9.355,16.9,16.9,0,0,0,57.108,7C45.266,7,35.633,19.845,35.633,35.633c-11.053,0-20.555,4.772-25.325,11.668a3.53,3.53,0,0,0-.953,1.315A16.9,16.9,0,0,0,7,57.108C7,68.951,19.845,78.584,35.633,78.584c11.053,0,20.554-4.772,25.325-11.668A3.526,3.526,0,0,0,61.911,65.6Z" transform="translate(21.633 43.108)" fill="#303c42"/>
  <path id="Path_17" data-name="Path 17" d="M28.475,23.978c0,7.9-3.035,15.046-7.526,18.75a19.416,19.416,0,0,0-6.975-11.5c1.015-1.9,2.112-3.694,3.162-5.269a42.813,42.813,0,0,0,7.1-17.071A27.593,27.593,0,0,1,28.475,23.978Z" transform="translate(64.583 54.764)" fill="#8e532a"/>
  <path id="Path_18" data-name="Path 18" d="M12,29.475C12,17.836,18.557,8,26.317,8a9.49,9.49,0,0,1,3.4.711A35.477,35.477,0,0,1,23.339,27.49c-1.059,1.588-2.173,3.4-3.25,5.351a34.021,34.021,0,0,0-8.03-2.59C12.047,29.989,12,29.741,12,29.475Z" transform="translate(52.425 49.267)" fill="#8e532a"/>
  <path id="Path_19" data-name="Path 19" d="M45.456,26.317a9.487,9.487,0,0,1-.708,3.393c-8.335-.476-13.59-3.339-18.96-6.482-4.824-2.824-9.772-5.719-16.9-6.986A27.593,27.593,0,0,1,23.981,12C35.621,12,45.456,18.557,45.456,26.317Z" transform="translate(33.286 73.9)" fill="#8e532a"/>
  <path id="Path_20" data-name="Path 20" d="M8,16.919a9.489,9.489,0,0,1,.708-3.393c8.335.476,13.59,3.339,18.96,6.482,4.824,2.824,9.773,5.718,16.9,6.985a27.59,27.59,0,0,1-15.09,4.242C17.836,31.235,8,24.678,8,16.919Z" transform="translate(27.792 83.298)" fill="#8e532a"/>
  <path id="Path_21" data-name="Path 21" d="M124.692,24.334V3.579A3.577,3.577,0,0,0,121.113,0H13.738a3.577,3.577,0,0,0-3.579,3.579V24.334A71.737,71.737,0,0,0,3,55.376V157.484A14.331,14.331,0,0,0,17.317,171.8H117.534a14.331,14.331,0,0,0,14.317-14.317V55.376A71.737,71.737,0,0,0,124.692,24.334Z" transform="translate(-3 0)" fill="url(#linear-gradient)"/>
</svg>
